<svg width="28" height="28" viewBox="0 0 28 28" fill="none" xmlns="http://www.w3.org/2000/svg">
<path d="M4.18013 1.81329C4.68075 1.81329 5.08658 1.40746 5.08658 0.906843C5.08658 0.406225 4.68075 0.000393448 4.18013 0.000393448V1.81329ZM0.000393448 4.18013C0.000393448 4.68075 0.406225 5.08658 0.906843 5.08658C1.40746 5.08658 1.81329 4.68075 1.81329 4.18013H0.000393448ZM4.18013 0.000393448H2.92117V1.81329H4.18013V0.000393448ZM0.000393448 2.92117V4.18013H1.81329V2.92117H0.000393448ZM2.92117 0.000393448C1.30807 0.000393448 0.000393448 1.30807 0.000393448 2.92117H1.81329C1.81329 2.30931 2.30931 1.81329 2.92117 1.81329V0.000393448Z" fill="#2D2D2D"/>
<path d="M4.18013 26.1867C4.68075 26.1867 5.08658 26.5925 5.08658 27.0932C5.08658 27.5938 4.68075 27.9996 4.18013 27.9996V26.1867ZM0.000393448 23.8199C0.000393448 23.3192 0.406225 22.9134 0.906843 22.9134C1.40746 22.9134 1.81329 23.3192 1.81329 23.8199H0.000393448ZM4.18013 27.9996H2.92117V26.1867H4.18013V27.9996ZM0.000393448 25.0788V23.8199H1.81329V25.0788H0.000393448ZM2.92117 27.9996C1.30807 27.9996 0.000393448 26.6919 0.000393448 25.0788H1.81329C1.81329 25.6907 2.30931 26.1867 2.92117 26.1867V27.9996Z" fill="#2D2D2D"/>
<path d="M23.8199 1.81329C23.3192 1.81329 22.9134 1.40746 22.9134 0.906843C22.9134 0.406225 23.3192 0.000393448 23.8199 0.000393448V1.81329ZM27.9996 4.18013C27.9996 4.68075 27.5938 5.08658 27.0932 5.08658C26.5925 5.08658 26.1867 4.68075 26.1867 4.18013H27.9996ZM23.8199 0.000393448H25.0788V1.81329H23.8199V0.000393448ZM27.9996 2.92117V4.18013H26.1867V2.92117H27.9996ZM25.0788 0.000393448C26.6919 0.000393448 27.9996 1.30807 27.9996 2.92117H26.1867C26.1867 2.30931 25.6907 1.81329 25.0788 1.81329V0.000393448Z" fill="#2D2D2D"/>
<path d="M23.8199 26.1867C23.3192 26.1867 22.9134 26.5925 22.9134 27.0932C22.9134 27.5938 23.3192 27.9996 23.8199 27.9996V26.1867ZM27.9996 23.8199C27.9996 23.3192 27.5938 22.9134 27.0932 22.9134C26.5925 22.9134 26.1867 23.3192 26.1867 23.8199H27.9996ZM23.8199 27.9996H25.0788V26.1867H23.8199V27.9996ZM27.9996 25.0788V23.8199H26.1867V25.0788H27.9996ZM25.0788 27.9996C26.6919 27.9996 27.9996 26.6919 27.9996 25.0788H26.1867C26.1867 25.6907 25.6907 26.1867 25.0788 26.1867V27.9996Z" fill="#2D2D2D"/>
</svg>
