<svg width="20" height="20" viewBox="0 0 20 20" fill="none" xmlns="http://www.w3.org/2000/svg">
<path fill-rule="evenodd" clip-rule="evenodd" d="M5.83366 13.2509V15.8291L10.0522 13.3363L10.4931 13.3291C12.2463 13.3004 13.8242 13.1239 15.004 12.9444C15.7485 12.8311 16.2659 12.3114 16.3783 11.6589C16.5342 10.7539 16.667 9.60727 16.667 8.33317C16.667 7.05907 16.5342 5.91244 16.3783 5.00739C16.2659 4.35491 15.7485 3.83527 15.004 3.72198C13.7136 3.52564 11.9489 3.33317 10.0003 3.33317C8.05171 3.33317 6.28706 3.52564 4.99668 3.72198C4.25211 3.83527 3.73474 4.35491 3.62235 5.00739C3.46646 5.91244 3.33366 7.05907 3.33366 8.33317C3.33366 9.60727 3.46646 10.7539 3.62235 11.6589C3.71995 12.2256 4.11577 12.6797 4.69289 12.8716L5.83366 13.2509ZM1.97987 4.72448C2.2217 3.32057 3.33759 2.28857 4.74597 2.07427C6.09541 1.86895 7.94665 1.6665 10.0003 1.6665C12.054 1.6665 13.9052 1.86895 15.2547 2.07427C16.6631 2.28857 17.779 3.32057 18.0208 4.72448C18.1893 5.70293 18.3337 6.94588 18.3337 8.33317C18.3337 9.72046 18.1893 10.9634 18.0208 11.9419C17.779 13.3458 16.6631 14.3778 15.2547 14.5921C14.0202 14.7799 12.3657 14.9653 10.5204 14.9956L5.42426 18.0069C4.86875 18.3352 4.16699 17.9347 4.16699 17.2895V14.4531C3.03913 14.0781 2.18746 13.147 1.97987 11.9419C1.81134 10.9634 1.66699 9.72046 1.66699 8.33317C1.66699 6.94588 1.81134 5.70293 1.97987 4.72448Z" fill="#828FA2"/>
<path fill-rule="evenodd" clip-rule="evenodd" d="M5.83333 5.8335C5.3731 5.8335 5 6.20659 5 6.66683C5 7.12707 5.3731 7.50016 5.83333 7.50016H14.1667C14.6269 7.50016 15 7.12707 15 6.66683C15 6.20659 14.6269 5.8335 14.1667 5.8335H5.83333ZM5.83333 9.16683C5.3731 9.16683 5 9.53993 5 10.0002C5 10.4604 5.3731 10.8335 5.83333 10.8335H9.16667C9.6269 10.8335 10 10.4604 10 10.0002C10 9.53993 9.6269 9.16683 9.16667 9.16683H5.83333Z" fill="#828FA2"/>
</svg>
