<svg width="20" height="20" viewBox="0 0 20 20" fill="none" xmlns="http://www.w3.org/2000/svg">
<path fill-rule="evenodd" clip-rule="evenodd" d="M4.33366 1.16683C4.49104 0.956991 4.73803 0.833496 5.00033 0.833496H15.0003C15.2626 0.833496 15.5096 0.956991 15.667 1.16683L18.167 4.50016C18.2752 4.64441 18.3337 4.81985 18.3337 5.00016V16.6668C18.3337 17.3299 18.0703 17.9658 17.6014 18.4346C17.1326 18.9034 16.4967 19.1668 15.8337 19.1668H4.16699C3.50395 19.1668 2.86807 18.9034 2.39923 18.4346C1.93038 17.9658 1.66699 17.3299 1.66699 16.6668V5.00016C1.66699 4.81985 1.72547 4.64441 1.83366 4.50016L4.33366 1.16683ZM5.41699 2.50016L3.33366 5.27794V16.6668C3.33366 16.8878 3.42146 17.0998 3.57774 17.2561C3.73402 17.4124 3.94598 17.5002 4.16699 17.5002H15.8337C16.0547 17.5002 16.2666 17.4124 16.4229 17.2561C16.5792 17.0998 16.667 16.8878 16.667 16.6668V5.27794L14.5837 2.50016H5.41699Z" fill="#828FA2"/>
<path fill-rule="evenodd" clip-rule="evenodd" d="M1.66699 5.00016C1.66699 4.53993 2.04009 4.16683 2.50033 4.16683H17.5003C17.9606 4.16683 18.3337 4.53993 18.3337 5.00016C18.3337 5.4604 17.9606 5.8335 17.5003 5.8335H2.50033C2.04009 5.8335 1.66699 5.4604 1.66699 5.00016Z" fill="#828FA2"/>
<path fill-rule="evenodd" clip-rule="evenodd" d="M6.66699 7.50016C7.12723 7.50016 7.50033 7.87326 7.50033 8.3335C7.50033 8.99654 7.76372 9.63242 8.23256 10.1013C8.7014 10.5701 9.33728 10.8335 10.0003 10.8335C10.6634 10.8335 11.2993 10.5701 11.7681 10.1013C12.2369 9.63242 12.5003 8.99654 12.5003 8.3335C12.5003 7.87326 12.8734 7.50016 13.3337 7.50016C13.7939 7.50016 14.167 7.87326 14.167 8.3335C14.167 9.43856 13.728 10.4984 12.9466 11.2798C12.1652 12.0612 11.1054 12.5002 10.0003 12.5002C8.89526 12.5002 7.83545 12.0612 7.05405 11.2798C6.27265 10.4984 5.83366 9.43856 5.83366 8.3335C5.83366 7.87326 6.20676 7.50016 6.66699 7.50016Z" fill="#828FA2"/>
</svg>
