<svg width="20" height="20" viewBox="0 0 20 20" fill="none" xmlns="http://www.w3.org/2000/svg">
<path fill-rule="evenodd" clip-rule="evenodd" d="M1.66699 2.49935C1.66699 2.03911 2.04009 1.66602 2.50033 1.66602H8.33366C8.7939 1.66602 9.16699 2.03911 9.16699 2.49935V8.33268C9.16699 8.79292 8.7939 9.16602 8.33366 9.16602H2.50033C2.04009 9.16602 1.66699 8.79292 1.66699 8.33268V2.49935ZM3.33366 3.33268V7.49935H7.50033V3.33268H3.33366Z" fill="#828FA2"/>
<path fill-rule="evenodd" clip-rule="evenodd" d="M10.833 2.49935C10.833 2.03911 11.2061 1.66602 11.6663 1.66602H17.4997C17.9599 1.66602 18.333 2.03911 18.333 2.49935V8.33268C18.333 8.79292 17.9599 9.16602 17.4997 9.16602H11.6663C11.2061 9.16602 10.833 8.79292 10.833 8.33268V2.49935ZM12.4997 3.33268V7.49935H16.6663V3.33268H12.4997Z" fill="#828FA2"/>
<path fill-rule="evenodd" clip-rule="evenodd" d="M10.833 11.6673C10.833 11.2071 11.2061 10.834 11.6663 10.834H17.4997C17.9599 10.834 18.333 11.2071 18.333 11.6673V17.5007C18.333 17.9609 17.9599 18.334 17.4997 18.334H11.6663C11.2061 18.334 10.833 17.9609 10.833 17.5007V11.6673ZM12.4997 12.5007V16.6673H16.6663V12.5007H12.4997Z" fill="#828FA2"/>
<path fill-rule="evenodd" clip-rule="evenodd" d="M1.66699 11.6673C1.66699 11.2071 2.04009 10.834 2.50033 10.834H8.33366C8.7939 10.834 9.16699 11.2071 9.16699 11.6673V17.5007C9.16699 17.9609 8.7939 18.334 8.33366 18.334H2.50033C2.04009 18.334 1.66699 17.9609 1.66699 17.5007V11.6673ZM3.33366 12.5007V16.6673H7.50033V12.5007H3.33366Z" fill="#828FA2"/>
</svg>
