<svg width="28" height="28" viewBox="0 0 28 28" fill="none" xmlns="http://www.w3.org/2000/svg">
<g clip-path="url(#clip0_530_294081)">
<path d="M14.0003 15.1667C9.70983 15.1667 6.0614 17.5195 4.72049 20.7999C4.58729 21.1258 4.70887 21.486 5.01805 21.7077C7.44861 23.4506 10.5812 24.5 14.0002 24.5C17.4193 24.5 20.552 23.4506 22.9826 21.7076C23.2918 21.4859 23.4134 21.1257 23.2802 20.7998C21.9392 17.5195 18.2908 15.1667 14.0003 15.1667Z" stroke="#828FA2" stroke-width="1.8"/>
<path d="M18.0837 7.58333C18.0837 9.8385 16.2555 11.6667 14.0003 11.6667C11.7452 11.6667 9.91699 9.8385 9.91699 7.58333C9.91699 5.32817 11.7452 3.5 14.0003 3.5C16.2555 3.5 18.0837 5.32817 18.0837 7.58333Z" stroke="#828FA2" stroke-width="1.8"/>
<path d="M4.25 1.9C4.74706 1.9 5.15 1.49706 5.15 1C5.15 0.502944 4.74706 0.1 4.25 0.1V1.9ZM0.1 4.25C0.1 4.74706 0.502944 5.15 1 5.15C1.49706 5.15 1.9 4.74706 1.9 4.25H0.1ZM4.25 0.1H3V1.9H4.25V0.1ZM0.1 3V4.25H1.9V3H0.1ZM3 0.1C1.39837 0.1 0.1 1.39837 0.1 3H1.9C1.9 2.39249 2.39249 1.9 3 1.9V0.1Z" fill="#828FA2"/>
<path d="M4.25 26.1C4.74706 26.1 5.15 26.5029 5.15 27C5.15 27.4971 4.74706 27.9 4.25 27.9V26.1ZM0.1 23.75C0.1 23.2529 0.502944 22.85 1 22.85C1.49706 22.85 1.9 23.2529 1.9 23.75H0.1ZM4.25 27.9H3V26.1H4.25V27.9ZM0.1 25V23.75H1.9V25H0.1ZM3 27.9C1.39837 27.9 0.1 26.6016 0.1 25H1.9C1.9 25.6075 2.39249 26.1 3 26.1V27.9Z" fill="#828FA2"/>
<path d="M23.75 1.9C23.2529 1.9 22.85 1.49706 22.85 1C22.85 0.502944 23.2529 0.1 23.75 0.1V1.9ZM27.9 4.25C27.9 4.74706 27.4971 5.15 27 5.15C26.5029 5.15 26.1 4.74706 26.1 4.25H27.9ZM23.75 0.1H25V1.9H23.75V0.1ZM27.9 3V4.25H26.1V3H27.9ZM25 0.1C26.6016 0.1 27.9 1.39837 27.9 3H26.1C26.1 2.39249 25.6075 1.9 25 1.9V0.1Z" fill="#828FA2"/>
<path d="M23.75 26.1C23.2529 26.1 22.85 26.5029 22.85 27C22.85 27.4971 23.2529 27.9 23.75 27.9V26.1ZM27.9 23.75C27.9 23.2529 27.4971 22.85 27 22.85C26.5029 22.85 26.1 23.2529 26.1 23.75H27.9ZM23.75 27.9H25V26.1H23.75V27.9ZM27.9 25V23.75H26.1V25H27.9ZM25 27.9C26.6016 27.9 27.9 26.6016 27.9 25H26.1C26.1 25.6075 25.6075 26.1 25 26.1V27.9Z" fill="#828FA2"/>
</g>
<defs>
<clipPath id="clip0_530_294081">
<rect width="28" height="28" fill="white"/>
</clipPath>
</defs>
</svg>
